<?xml version="1.0" encoding="UTF-8"?> <svg xmlns="http://www.w3.org/2000/svg" version="1.1" id="Layer_1" x="0" y="0" viewBox="0 0 1161 593" xml:space="preserve"><style>.st0{fill:#004992}.st1{fill:#fcb412}.st2{fill:#474747}</style><path class="st0" d="M162.82 201.33v12.32c0 21.78-10.26 32.67-30.8 32.67h-16.59c-20.53 0-30.78-10.89-30.78-32.67V86.75c0-21.79 10.24-32.69 30.78-32.69h16.59c20.53 0 30.8 10.9 30.8 32.69v21.69h-25.7V88.63c0-7.49-3.83-11.25-11.52-11.25h-5.08c-6.77 0-10.18 3.76-10.18 11.25v123.15c0 7.5 3.4 11.25 10.18 11.25h6.42c6.8 0 10.18-3.74 10.18-11.25v-10.44l25.7-.01zM249.63 246.33h-61.05V54.07h25.71v168.96h35.33l.01 23.3zM273.57 246.33V54.07h25.69v192.26h-25.69zM378.69 167.07l23.84-113h28.39v192.26H405.2l2.67-125.85-19.26 91.05h-19.82l-19.29-91.05 2.69 125.85h-25.7V54.07h28.38l23.82 113zM481.55 246.33h-25.71V87.01c0-21.95 10.27-32.95 30.78-32.95h19.31c20.5 0 30.78 11 30.78 32.95v159.31H511V175.9h-29.45v70.43zM511 152.61V88.63c0-7.49-3.74-11.25-11.24-11.25h-6.97c-7.49 0-11.24 3.76-11.24 11.25v63.98H511zM598.26 77.38v168.95h-25.69V77.38h-24.64V54.07h74.97v23.31h-24.64zM636.77 246.33V54.07h63.73v23.31h-38.03v58.38h33.73v23.28h-33.73v63.98h38.03v23.3h-63.73v.01z"></path><path class="st1" d="M224.06 463.72V272.67h25.57v191.05h-25.57zM326.53 365v-92.34h25.54v191.05h-25.54v-38.05l-27.42-87v125.06h-25.54V272.67h25.54L326.53 365zM416.72 295.82v167.9h-25.54v-167.9h-24.49v-23.15h74.53v23.15h-24.5zM455.84 463.72V272.67h63.32v23.15h-37.77v58.01h33.52v23.14h-33.52v63.58h37.77v23.16l-63.32.01zM537.52 272.67h50.02c19.52 0 29.3 10.92 29.3 32.75v47.1c0 16.65-5.08 27.21-15.18 31.64l17.83 79.56h-24.21l-16.75-77.17h-15.44v77.17h-25.55V272.67h-.02zm25.55 92.07h16.76c7.64 0 11.45-4.62 11.45-13.85v-41.23c0-9.23-3.81-13.84-11.45-13.84h-16.76v68.92zM662.32 463.72h-25.55v-158.3c0-21.83 10.21-32.75 30.6-32.75h19.15c20.41 0 30.61 10.92 30.61 32.75v158.3h-25.55v-69.98h-29.27v69.98h.01zm29.26-93.12v-63.59c0-7.46-3.71-11.19-11.17-11.19h-6.92c-7.45 0-11.18 3.73-11.18 11.19v63.59h29.27zM816.12 419.02v12.22c0 21.64-10.2 32.47-30.6 32.47h-16.5c-20.39 0-30.6-10.83-30.6-32.47V305.15c0-21.66 10.21-32.48 30.6-32.48h16.5c20.41 0 30.6 10.83 30.6 32.48v21.54h-25.56v-19.68c0-7.46-3.82-11.19-11.44-11.19h-5.05c-6.73 0-10.11 3.73-10.11 11.19v122.37c0 7.47 3.39 11.18 10.11 11.18h6.4c6.73 0 10.1-3.71 10.1-11.18v-10.36h25.55zM876.79 295.82v167.9h-25.56v-167.9h-24.47v-23.15h74.52v23.15h-24.49zM915.9 463.72V272.67h25.53v191.05H915.9zM1048.15 272.67l-30.88 191.05h-30.34l-30.86-191.05h25.28l20.76 145.79 20.75-145.79h25.29zM1060.1 463.72h63.33v-23.16h-37.77v-63.59h33.54v-23.14h-33.54v-58.01h37.77v-23.15h-63.33z"></path><path class="st0" d="M204.13 373.05l-65.54-53.37v23.62s-38.67.49-66.28-32.89c-16.55-20.01-20.85-47.02-14.53-72.6 1-4.08-4.38-6.58-6.79-3.14-12.32 17.57-21.43 44.29-19.04 69.51 2.97 31.34 14.83 53.03 36.2 72.07 32.18 28.67 70.44 26.55 70.44 26.55v23.63l65.54-53.38z"></path><path class="st1" d="M897.15 175.17c-2.97-31.34-14.83-53.03-36.2-72.07-32.19-28.67-70.44-26.55-70.44-26.55V52.92l-65.54 53.38 65.54 53.37v-23.62s38.67-.49 66.28 32.89c16.55 20.01 20.85 47.02 14.53 72.6-1 4.08 4.38 6.58 6.79 3.14 12.32-17.57 21.43-44.29 19.04-69.51z"></path><path class="st2" d="M93.52 492.91l-2.37 10.97h10.76l-.72 3.2H90.43l-5.07 25.04c-.57 2.75-.96 4.98-.96 7.21 0 2.48 1.22 3.98 4.1 3.98 1.48 0 2.5-.09 3.32-.36l.25 3.07c-1.19.4-2.82.62-4.47.62-5.37 0-7.5-3.3-7.5-6.85 0-2.22.29-4.39 1-7.67l5.21-25.02h-6.56l.67-3.2h6.61l2-9.75 4.49-1.24zM148.31 519.18c0 10.74-7.72 27.52-22.5 27.52-9.87 0-14.58-7.6-14.58-16.23 0-12.28 8.68-27.49 22.54-27.49 10.96.01 14.54 8.63 14.54 16.2zm-32.78 10.88c0 7.37 3.67 13.32 10.94 13.32 10.29 0 17.55-14.18 17.55-24.21 0-5.47-2.26-12.85-10.66-12.85-10.59 0-17.83 12.98-17.83 23.74zM199.88 519.18c0 10.74-7.72 27.52-22.5 27.52-9.87 0-14.58-7.6-14.58-16.23 0-12.28 8.68-27.49 22.54-27.49 10.96.01 14.54 8.63 14.54 16.2zm-32.78 10.88c0 7.37 3.67 13.32 10.94 13.32 10.29 0 17.55-14.18 17.55-24.21 0-5.47-2.26-12.85-10.66-12.85-10.59 0-17.83 12.98-17.83 23.74zM213.99 545.82l12.72-61.57h4.16l-12.77 61.57h-4.11zM240.17 540.92c1.69 1.06 4.67 2.33 8.05 2.33 5.97 0 10-3.94 10-8.7 0-4.22-1.92-6.74-6.16-9.26-4.51-2.73-6.99-6.49-6.99-10.36 0-6.54 5.74-11.93 13.81-11.93 3.12 0 6.2.93 7.53 1.89l-1.53 3.25c-1.38-.83-3.83-1.77-6.53-1.77-5.48 0-9.13 3.54-9.13 7.87 0 3.93 2.42 6.11 6.11 8.4 4.41 2.72 7.08 6.57 7.08 10.83 0 8.5-6.79 13.16-14.63 13.16-4.03 0-7.7-1.4-9.2-2.54l1.59-3.17zM305.43 545.82l8.04-38.71h-5.97l.67-3.24h6.02l.52-2.55c1.11-5.79 3.31-11.18 6.94-14.46 2.34-2.06 5.59-3.5 9.17-3.5 2.67 0 4.39.53 5.11 1.02l-1.2 3.16c-1.11-.49-2.61-.76-4.33-.76-6.95 0-10.23 6.95-11.72 15.05l-.38 2.05h10.26l-.72 3.24h-10.26l-8.08 38.71h-4.07v-.01zM373.06 519.18c0 10.74-7.72 27.52-22.5 27.52-9.87 0-14.58-7.6-14.58-16.23 0-12.28 8.68-27.49 22.54-27.49 10.96.01 14.54 8.63 14.54 16.2zm-32.78 10.88c0 7.37 3.67 13.32 10.94 13.32 10.29 0 17.55-14.18 17.55-24.21 0-5.47-2.26-12.85-10.66-12.85-10.59 0-17.83 12.98-17.83 23.74zM387.17 545.82l5.81-28.23c1.09-5.29 1.76-10.08 2.16-13.71h3.77c-.34 2.74-.69 5.51-1.31 9.12h.24c2.77-5.62 7.27-10.01 13.01-10.01.54 0 1.27.05 1.71.14l-.81 3.98c-.4-.09-.89-.14-1.58-.14-5.96 0-12.64 8.3-14.53 17.51l-4.35 21.34h-4.12zM473.49 545.82c-.05-2.54.48-6.5 1.16-11.27h-.19c-5.29 9.28-11.05 12.15-17.03 12.15-6.97 0-11.2-5.23-11.2-12.78 0-14.27 11.15-30.93 28.86-30.93 3.28 0 6.91.48 9.24 1.23l-4.82 22.59c-1.63 7.81-2.19 14.57-2 19.01h-4.02zm6.11-38.83c-1.06-.35-2.71-.62-5.49-.62-13.2 0-23.45 13.46-23.59 26.66-.09 5.42 1.59 10.35 7.86 10.35 7.37 0 15.76-10.21 18.01-21.06l3.21-15.33zM539.79 492.91l-2.37 10.97h10.76l-.72 3.2H536.7l-5.07 25.04c-.57 2.75-.96 4.98-.96 7.21 0 2.48 1.22 3.98 4.1 3.98 1.48 0 2.5-.09 3.32-.36l.25 3.07c-1.19.4-2.82.62-4.47.62-5.37 0-7.5-3.3-7.5-6.85 0-2.22.29-4.39 1-7.67l5.21-25.02h-6.56l.67-3.2h6.61l2-9.75 4.49-1.24zM557.12 545.82l12.72-61.57H574l-5.8 27.57h.19c3.87-5.62 9.14-8.83 15.62-8.83 4.38 0 10.12 2.65 10.12 10.2 0 2.36-.24 4.5-.71 6.66l-5.36 25.97h-4.11l5.4-26.18c.33-1.6.62-3.42.62-6.04 0-4.07-2.18-7.19-7.46-7.19-6.56 0-14.82 7.45-16.69 16.67l-4.6 22.74h-4.1zM610.4 545.82l5.81-28.23c1.09-5.29 1.76-10.08 2.16-13.71h3.78c-.35 2.74-.69 5.51-1.31 9.12h.24c2.77-5.62 7.27-10.01 13.01-10.01.54 0 1.27.05 1.71.14l-.81 3.98c-.39-.09-.89-.14-1.58-.14-5.96 0-12.64 8.3-14.53 17.51l-4.35 21.34h-4.13zM644.47 545.82l8.75-41.95h4.11l-8.75 41.95h-4.11zm9.89-53.57c.09-1.88 1.61-3.42 3.48-3.42 2.05 0 3.2 1.5 3.12 3.42-.19 1.88-1.51 3.38-3.62 3.38-1.96 0-3.11-1.5-2.98-3.38zM677.84 503.88l4.02 27.12c.64 4.31 1.17 7.47 1.19 9.49h.28c.9-1.94 2.12-4.71 4.54-8.94l15.52-27.67h4.35l-23.82 41.94h-3.78l-6.41-41.95h4.11v.01zM716.6 545.82l8.75-41.95h4.11l-8.75 41.95h-4.11zm9.89-53.57c.09-1.88 1.61-3.42 3.48-3.42 2.05 0 3.2 1.5 3.12 3.42-.19 1.88-1.51 3.38-3.62 3.38-1.97 0-3.11-1.5-2.98-3.38zM743.33 545.82l6.07-29.61c1.08-5.03 1.65-9.14 2.08-12.34h3.83l-1.25 8.53h.19c4-6.08 9.7-9.42 15.97-9.42 4.44 0 10.18 2.6 10.18 10.61 0 2.03-.33 4.16-.81 6.48l-5.3 25.74h-4.11l5.31-25.81c.38-1.86.71-3.92.71-6.04 0-4.39-1.93-7.56-7.56-7.56-6.08 0-14.67 7.01-16.69 17.13l-4.5 22.28-4.12.01zM795.64 557.82c2.6 1.55 6.21 2.7 10.77 2.7 7.94 0 13.4-4.34 16.29-16.29l1.91-7.88h-.24c-4.28 7-9.98 9.79-15.72 9.79-7.86 0-11.88-6.2-11.88-13.66 0-13.77 10.12-29.5 26.35-29.5 3.97 0 9.01 1.33 11.56 2.57l-7.22 35.33c-2 9.65-4.45 15.21-8.3 18.52-3.86 3.35-8.99 4.43-13.43 4.43-4.72 0-9.12-1.15-11.62-2.83l1.53-3.18zM830 507.93c-1.54-.75-4.32-1.56-7.95-1.56-12.74 0-20.85 13.81-20.99 25.06-.09 5.25 1.41 11.4 8.83 11.4 7.5 0 14.8-9.68 16.53-17.92l3.58-16.98zM874.45 545.82l8.04-38.71h-5.97l.67-3.24h6.02l.52-2.55c1.11-5.79 3.31-11.18 6.94-14.46 2.34-2.06 5.59-3.5 9.17-3.5 2.67 0 4.39.53 5.12 1.02l-1.2 3.16c-1.11-.49-2.61-.76-4.33-.76-6.95 0-10.23 6.95-11.72 15.05l-.38 2.05h10.26l-.72 3.24h-10.26l-8.08 38.71h-4.08v-.01zM943.23 503.88l-6.12 29.61c-1.03 5.03-1.56 9.14-1.85 12.34h-3.92l1.21-8.17h-.19c-3.67 5.54-9.39 9.06-15.17 9.06-4.99 0-10.73-2.46-10.73-11.07 0-1.91.24-3.85.77-6.25l5.29-25.51h4.11l-5.21 25.17c-.53 2.46-.81 4.43-.81 6.51 0 4.63 2.08 7.69 7.67 7.69 6.17 0 14.12-6.85 16.03-16.16l4.8-23.2h4.12v-.02zM973.98 492.91l-2.37 10.97h10.76l-.72 3.2h-10.76l-5.07 25.04c-.57 2.75-.96 4.98-.96 7.21 0 2.48 1.22 3.98 4.1 3.98 1.48 0 2.5-.09 3.32-.36l.25 3.07c-1.19.4-2.82.62-4.47.62-5.37 0-7.5-3.3-7.5-6.85 0-2.22.29-4.39 1-7.67l5.21-25.02h-6.56l.67-3.2h6.61l2-9.75 4.49-1.24zM1029.92 503.88l-6.12 29.61c-1.03 5.03-1.56 9.14-1.85 12.34h-3.92l1.21-8.17h-.19c-3.67 5.54-9.39 9.06-15.17 9.06-4.99 0-10.73-2.46-10.73-11.07 0-1.91.24-3.85.77-6.25l5.29-25.51h4.11l-5.21 25.17c-.53 2.46-.81 4.43-.81 6.51 0 4.63 2.08 7.69 7.67 7.69 6.17 0 14.12-6.85 16.03-16.16l4.8-23.2h4.12v-.02zM1043.93 545.82l5.81-28.23c1.09-5.29 1.76-10.08 2.16-13.71h3.78c-.35 2.74-.69 5.51-1.31 9.12h.24c2.77-5.62 7.27-10.01 13.01-10.01.54 0 1.27.05 1.71.14l-.81 3.98c-.39-.09-.89-.14-1.58-.14-5.96 0-12.64 8.3-14.53 17.51l-4.35 21.34h-4.13zM1105.23 543.46c-2.46 1.47-6.79 3.16-12.48 3.16-10.66 0-14.43-7.69-14.43-15.71 0-12.07 9.21-27.92 22.34-27.92 7.51 0 10.61 4.52 10.61 9.22 0 10.68-13.31 13.58-28.23 13.52-.54 1.91-.61 7.42.36 10.43 1.6 4.77 5.17 7.09 9.97 7.09 5.03 0 8.51-1.63 10.62-2.82l1.24 3.03zm-5.33-37.09c-7.08 0-13.42 7-16.2 16.09 11.84.05 23.31-1.76 23.31-10.01.01-4.02-2.91-6.08-7.11-6.08z"></path></svg> 